<?xml version="1.0" encoding="utf-8" standalone="no"?>
<!DOCTYPE svg PUBLIC "-//W3C//DTD SVG 1.1//EN"
  "http://www.w3.org/Graphics/SVG/1.1/DTD/svg11.dtd">
<svg xmlns:xlink="http://www.w3.org/1999/xlink" width="576pt" height="576pt" viewBox="0 0 576 576" xmlns="http://www.w3.org/2000/svg" version="1.1">
 <metadata>
  <rdf:RDF xmlns:dc="http://purl.org/dc/elements/1.1/" xmlns:cc="http://creativecommons.org/ns#" xmlns:rdf="http://www.w3.org/1999/02/22-rdf-syntax-ns#">
   <cc:Work>
    <dc:type rdf:resource="http://purl.org/dc/dcmitype/StillImage"/>
    <dc:date>2026-02-23T03:46:45.127396</dc:date>
    <dc:format>image/svg+xml</dc:format>
    <dc:creator>
     <cc:Agent>
      <dc:title>Matplotlib v3.10.8, https://matplotlib.org/</dc:title>
     </cc:Agent>
    </dc:creator>
   </cc:Work>
  </rdf:RDF>
 </metadata>
 <defs>
  <style type="text/css">*{stroke-linejoin: round; stroke-linecap: butt}</style>
 </defs>
 <g id="figure_1">
  <g id="patch_1">
   <path d="M 0 576 
L 576 576 
L 576 0 
L 0 0 
z
" style="fill: #ffffff"/>
  </g>
  <g id="axes_1">
   <g id="patch_2">
    <path d="M 72 512.64 
L 518.4 512.64 
L 518.4 69.12 
L 72 69.12 
z
" style="fill: #ffffff"/>
   </g>
   <g id="matplotlib.axis_1">
    <g id="xtick_1">
     <g id="line2d_1">
      <path d="M 72.622732 512.64 
L 72.622732 69.12 
" clip-path="url(#p66f11d81a1)" style="fill: none; stroke: #cccccc; stroke-linecap: round"/>
     </g>
     <g id="text_1">
      <!-- 0 -->
      <g style="fill: #262626" transform="translate(69.123357 530.498281) scale(0.11 -0.11)">
       <defs>
        <path id="DejaVuSans-30" d="M 2034 4250 
Q 1547 4250 1301 3770 
Q 1056 3291 1056 2328 
Q 1056 1369 1301 889 
Q 1547 409 2034 409 
Q 2525 409 2770 889 
Q 3016 1369 3016 2328 
Q 3016 3291 2770 3770 
Q 2525 4250 2034 4250 
z
M 2034 4750 
Q 2819 4750 3233 4129 
Q 3647 3509 3647 2328 
Q 3647 1150 3233 529 
Q 2819 -91 2034 -91 
Q 1250 -91 836 529 
Q 422 1150 422 2328 
Q 422 3509 836 4129 
Q 1250 4750 2034 4750 
z
" transform="scale(0.015625)"/>
       </defs>
       <use xlink:href="#DejaVuSans-30"/>
      </g>
     </g>
    </g>
    <g id="xtick_2">
     <g id="line2d_2">
      <path d="M 128.978541 512.64 
L 128.978541 69.12 
" clip-path="url(#p66f11d81a1)" style="fill: none; stroke: #cccccc; stroke-linecap: round"/>
     </g>
     <g id="text_2">
      <!-- 100000 -->
      <g style="fill: #262626" transform="translate(107.982291 530.498281) scale(0.11 -0.11)">
       <defs>
        <path id="DejaVuSans-31" d="M 794 531 
L 1825 531 
L 1825 4091 
L 703 3866 
L 703 4441 
L 1819 4666 
L 2450 4666 
L 2450 531 
L 3481 531 
L 3481 0 
L 794 0 
L 794 531 
z
" transform="scale(0.015625)"/>
       </defs>
       <use xlink:href="#DejaVuSans-31"/>
       <use xlink:href="#DejaVuSans-30" transform="translate(63.623047 0)"/>
       <use xlink:href="#DejaVuSans-30" transform="translate(127.246094 0)"/>
       <use xlink:href="#DejaVuSans-30" transform="translate(190.869141 0)"/>
       <use xlink:href="#DejaVuSans-30" transform="translate(254.492188 0)"/>
       <use xlink:href="#DejaVuSans-30" transform="translate(318.115234 0)"/>
      </g>
     </g>
    </g>
    <g id="xtick_3">
     <g id="line2d_3">
      <path d="M 185.33435 512.64 
L 185.33435 69.12 
" clip-path="url(#p66f11d81a1)" style="fill: none; stroke: #cccccc; stroke-linecap: round"/>
     </g>
     <g id="text_3">
      <!-- 200000 -->
      <g style="fill: #262626" transform="translate(164.3381 530.498281) scale(0.11 -0.11)">
       <defs>
        <path id="DejaVuSans-32" d="M 1228 531 
L 3431 531 
L 3431 0 
L 469 0 
L 469 531 
Q 828 903 1448 1529 
Q 2069 2156 2228 2338 
Q 2531 2678 2651 2914 
Q 2772 3150 2772 3378 
Q 2772 3750 2511 3984 
Q 2250 4219 1831 4219 
Q 1534 4219 1204 4116 
Q 875 4013 500 3803 
L 500 4441 
Q 881 4594 1212 4672 
Q 1544 4750 1819 4750 
Q 2544 4750 2975 4387 
Q 3406 4025 3406 3419 
Q 3406 3131 3298 2873 
Q 3191 2616 2906 2266 
Q 2828 2175 2409 1742 
Q 1991 1309 1228 531 
z
" transform="scale(0.015625)"/>
       </defs>
       <use xlink:href="#DejaVuSans-32"/>
       <use xlink:href="#DejaVuSans-30" transform="translate(63.623047 0)"/>
       <use xlink:href="#DejaVuSans-30" transform="translate(127.246094 0)"/>
       <use xlink:href="#DejaVuSans-30" transform="translate(190.869141 0)"/>
       <use xlink:href="#DejaVuSans-30" transform="translate(254.492188 0)"/>
       <use xlink:href="#DejaVuSans-30" transform="translate(318.115234 0)"/>
      </g>
     </g>
    </g>
    <g id="xtick_4">
     <g id="line2d_4">
      <path d="M 241.690159 512.64 
L 241.690159 69.12 
" clip-path="url(#p66f11d81a1)" style="fill: none; stroke: #cccccc; stroke-linecap: round"/>
     </g>
     <g id="text_4">
      <!-- 300000 -->
      <g style="fill: #262626" transform="translate(220.693909 530.498281) scale(0.11 -0.11)">
       <defs>
        <path id="DejaVuSans-33" d="M 2597 2516 
Q 3050 2419 3304 2112 
Q 3559 1806 3559 1356 
Q 3559 666 3084 287 
Q 2609 -91 1734 -91 
Q 1441 -91 1130 -33 
Q 819 25 488 141 
L 488 750 
Q 750 597 1062 519 
Q 1375 441 1716 441 
Q 2309 441 2620 675 
Q 2931 909 2931 1356 
Q 2931 1769 2642 2001 
Q 2353 2234 1838 2234 
L 1294 2234 
L 1294 2753 
L 1863 2753 
Q 2328 2753 2575 2939 
Q 2822 3125 2822 3475 
Q 2822 3834 2567 4026 
Q 2313 4219 1838 4219 
Q 1578 4219 1281 4162 
Q 984 4106 628 3988 
L 628 4550 
Q 988 4650 1302 4700 
Q 1616 4750 1894 4750 
Q 2613 4750 3031 4423 
Q 3450 4097 3450 3541 
Q 3450 3153 3228 2886 
Q 3006 2619 2597 2516 
z
" transform="scale(0.015625)"/>
       </defs>
       <use xlink:href="#DejaVuSans-33"/>
       <use xlink:href="#DejaVuSans-30" transform="translate(63.623047 0)"/>
       <use xlink:href="#DejaVuSans-30" transform="translate(127.246094 0)"/>
       <use xlink:href="#DejaVuSans-30" transform="translate(190.869141 0)"/>
       <use xlink:href="#DejaVuSans-30" transform="translate(254.492188 0)"/>
       <use xlink:href="#DejaVuSans-30" transform="translate(318.115234 0)"/>
      </g>
     </g>
    </g>
    <g id="xtick_5">
     <g id="line2d_5">
      <path d="M 298.045968 512.64 
L 298.045968 69.12 
" clip-path="url(#p66f11d81a1)" style="fill: none; stroke: #cccccc; stroke-linecap: round"/>
     </g>
     <g id="text_5">
      <!-- 400000 -->
      <g style="fill: #262626" transform="translate(277.049718 530.498281) scale(0.11 -0.11)">
       <defs>
        <path id="DejaVuSans-34" d="M 2419 4116 
L 825 1625 
L 2419 1625 
L 2419 4116 
z
M 2253 4666 
L 3047 4666 
L 3047 1625 
L 3713 1625 
L 3713 1100 
L 3047 1100 
L 3047 0 
L 2419 0 
L 2419 1100 
L 313 1100 
L 313 1709 
L 2253 4666 
z
" transform="scale(0.015625)"/>
       </defs>
       <use xlink:href="#DejaVuSans-34"/>
       <use xlink:href="#DejaVuSans-30" transform="translate(63.623047 0)"/>
       <use xlink:href="#DejaVuSans-30" transform="translate(127.246094 0)"/>
       <use xlink:href="#DejaVuSans-30" transform="translate(190.869141 0)"/>
       <use xlink:href="#DejaVuSans-30" transform="translate(254.492188 0)"/>
       <use xlink:href="#DejaVuSans-30" transform="translate(318.115234 0)"/>
      </g>
     </g>
    </g>
    <g id="xtick_6">
     <g id="line2d_6">
      <path d="M 354.401778 512.64 
L 354.401778 69.12 
" clip-path="url(#p66f11d81a1)" style="fill: none; stroke: #cccccc; stroke-linecap: round"/>
     </g>
     <g id="text_6">
      <!-- 500000 -->
      <g style="fill: #262626" transform="translate(333.405528 530.498281) scale(0.11 -0.11)">
       <defs>
        <path id="DejaVuSans-35" d="M 691 4666 
L 3169 4666 
L 3169 4134 
L 1269 4134 
L 1269 2991 
Q 1406 3038 1543 3061 
Q 1681 3084 1819 3084 
Q 2600 3084 3056 2656 
Q 3513 2228 3513 1497 
Q 3513 744 3044 326 
Q 2575 -91 1722 -91 
Q 1428 -91 1123 -41 
Q 819 9 494 109 
L 494 744 
Q 775 591 1075 516 
Q 1375 441 1709 441 
Q 2250 441 2565 725 
Q 2881 1009 2881 1497 
Q 2881 1984 2565 2268 
Q 2250 2553 1709 2553 
Q 1456 2553 1204 2497 
Q 953 2441 691 2322 
L 691 4666 
z
" transform="scale(0.015625)"/>
       </defs>
       <use xlink:href="#DejaVuSans-35"/>
       <use xlink:href="#DejaVuSans-30" transform="translate(63.623047 0)"/>
       <use xlink:href="#DejaVuSans-30" transform="translate(127.246094 0)"/>
       <use xlink:href="#DejaVuSans-30" transform="translate(190.869141 0)"/>
       <use xlink:href="#DejaVuSans-30" transform="translate(254.492188 0)"/>
       <use xlink:href="#DejaVuSans-30" transform="translate(318.115234 0)"/>
      </g>
     </g>
    </g>
    <g id="xtick_7">
     <g id="line2d_7">
      <path d="M 410.757587 512.64 
L 410.757587 69.12 
" clip-path="url(#p66f11d81a1)" style="fill: none; stroke: #cccccc; stroke-linecap: round"/>
     </g>
     <g id="text_7">
      <!-- 600000 -->
      <g style="fill: #262626" transform="translate(389.761337 530.498281) scale(0.11 -0.11)">
       <defs>
        <path id="DejaVuSans-36" d="M 2113 2584 
Q 1688 2584 1439 2293 
Q 1191 2003 1191 1497 
Q 1191 994 1439 701 
Q 1688 409 2113 409 
Q 2538 409 2786 701 
Q 3034 994 3034 1497 
Q 3034 2003 2786 2293 
Q 2538 2584 2113 2584 
z
M 3366 4563 
L 3366 3988 
Q 3128 4100 2886 4159 
Q 2644 4219 2406 4219 
Q 1781 4219 1451 3797 
Q 1122 3375 1075 2522 
Q 1259 2794 1537 2939 
Q 1816 3084 2150 3084 
Q 2853 3084 3261 2657 
Q 3669 2231 3669 1497 
Q 3669 778 3244 343 
Q 2819 -91 2113 -91 
Q 1303 -91 875 529 
Q 447 1150 447 2328 
Q 447 3434 972 4092 
Q 1497 4750 2381 4750 
Q 2619 4750 2861 4703 
Q 3103 4656 3366 4563 
z
" transform="scale(0.015625)"/>
       </defs>
       <use xlink:href="#DejaVuSans-36"/>
       <use xlink:href="#DejaVuSans-30" transform="translate(63.623047 0)"/>
       <use xlink:href="#DejaVuSans-30" transform="translate(127.246094 0)"/>
       <use xlink:href="#DejaVuSans-30" transform="translate(190.869141 0)"/>
       <use xlink:href="#DejaVuSans-30" transform="translate(254.492188 0)"/>
       <use xlink:href="#DejaVuSans-30" transform="translate(318.115234 0)"/>
      </g>
     </g>
    </g>
    <g id="xtick_8">
     <g id="line2d_8">
      <path d="M 467.113396 512.64 
L 467.113396 69.12 
" clip-path="url(#p66f11d81a1)" style="fill: none; stroke: #cccccc; stroke-linecap: round"/>
     </g>
     <g id="text_8">
      <!-- 700000 -->
      <g style="fill: #262626" transform="translate(446.117146 530.498281) scale(0.11 -0.11)">
       <defs>
        <path id="DejaVuSans-37" d="M 525 4666 
L 3525 4666 
L 3525 4397 
L 1831 0 
L 1172 0 
L 2766 4134 
L 525 4134 
L 525 4666 
z
" transform="scale(0.015625)"/>
       </defs>
       <use xlink:href="#DejaVuSans-37"/>
       <use xlink:href="#DejaVuSans-30" transform="translate(63.623047 0)"/>
       <use xlink:href="#DejaVuSans-30" transform="translate(127.246094 0)"/>
       <use xlink:href="#DejaVuSans-30" transform="translate(190.869141 0)"/>
       <use xlink:href="#DejaVuSans-30" transform="translate(254.492188 0)"/>
       <use xlink:href="#DejaVuSans-30" transform="translate(318.115234 0)"/>
      </g>
     </g>
    </g>
    <g id="text_9">
     <!-- SalePrice -->
     <g style="fill: #262626" transform="translate(267.718125 545.904063) scale(0.12 -0.12)">
      <defs>
       <path id="DejaVuSans-53" d="M 3425 4513 
L 3425 3897 
Q 3066 4069 2747 4153 
Q 2428 4238 2131 4238 
Q 1616 4238 1336 4038 
Q 1056 3838 1056 3469 
Q 1056 3159 1242 3001 
Q 1428 2844 1947 2747 
L 2328 2669 
Q 3034 2534 3370 2195 
Q 3706 1856 3706 1288 
Q 3706 609 3251 259 
Q 2797 -91 1919 -91 
Q 1588 -91 1214 -16 
Q 841 59 441 206 
L 441 856 
Q 825 641 1194 531 
Q 1563 422 1919 422 
Q 2459 422 2753 634 
Q 3047 847 3047 1241 
Q 3047 1584 2836 1778 
Q 2625 1972 2144 2069 
L 1759 2144 
Q 1053 2284 737 2584 
Q 422 2884 422 3419 
Q 422 4038 858 4394 
Q 1294 4750 2059 4750 
Q 2388 4750 2728 4690 
Q 3069 4631 3425 4513 
z
" transform="scale(0.015625)"/>
       <path id="DejaVuSans-61" d="M 2194 1759 
Q 1497 1759 1228 1600 
Q 959 1441 959 1056 
Q 959 750 1161 570 
Q 1363 391 1709 391 
Q 2188 391 2477 730 
Q 2766 1069 2766 1631 
L 2766 1759 
L 2194 1759 
z
M 3341 1997 
L 3341 0 
L 2766 0 
L 2766 531 
Q 2569 213 2275 61 
Q 1981 -91 1556 -91 
Q 1019 -91 701 211 
Q 384 513 384 1019 
Q 384 1609 779 1909 
Q 1175 2209 1959 2209 
L 2766 2209 
L 2766 2266 
Q 2766 2663 2505 2880 
Q 2244 3097 1772 3097 
Q 1472 3097 1187 3025 
Q 903 2953 641 2809 
L 641 3341 
Q 956 3463 1253 3523 
Q 1550 3584 1831 3584 
Q 2591 3584 2966 3190 
Q 3341 2797 3341 1997 
z
" transform="scale(0.015625)"/>
       <path id="DejaVuSans-6c" d="M 603 4863 
L 1178 4863 
L 1178 0 
L 603 0 
L 603 4863 
z
" transform="scale(0.015625)"/>
       <path id="DejaVuSans-65" d="M 3597 1894 
L 3597 1613 
L 953 1613 
Q 991 1019 1311 708 
Q 1631 397 2203 397 
Q 2534 397 2845 478 
Q 3156 559 3463 722 
L 3463 178 
Q 3153 47 2828 -22 
Q 2503 -91 2169 -91 
Q 1331 -91 842 396 
Q 353 884 353 1716 
Q 353 2575 817 3079 
Q 1281 3584 2069 3584 
Q 2775 3584 3186 3129 
Q 3597 2675 3597 1894 
z
M 3022 2063 
Q 3016 2534 2758 2815 
Q 2500 3097 2075 3097 
Q 1594 3097 1305 2825 
Q 1016 2553 972 2059 
L 3022 2063 
z
" transform="scale(0.015625)"/>
       <path id="DejaVuSans-50" d="M 1259 4147 
L 1259 2394 
L 2053 2394 
Q 2494 2394 2734 2622 
Q 2975 2850 2975 3272 
Q 2975 3691 2734 3919 
Q 2494 4147 2053 4147 
L 1259 4147 
z
M 628 4666 
L 2053 4666 
Q 2838 4666 3239 4311 
Q 3641 3956 3641 3272 
Q 3641 2581 3239 2228 
Q 2838 1875 2053 1875 
L 1259 1875 
L 1259 0 
L 628 0 
L 628 4666 
z
" transform="scale(0.015625)"/>
       <path id="DejaVuSans-72" d="M 2631 2963 
Q 2534 3019 2420 3045 
Q 2306 3072 2169 3072 
Q 1681 3072 1420 2755 
Q 1159 2438 1159 1844 
L 1159 0 
L 581 0 
L 581 3500 
L 1159 3500 
L 1159 2956 
Q 1341 3275 1631 3429 
Q 1922 3584 2338 3584 
Q 2397 3584 2469 3576 
Q 2541 3569 2628 3553 
L 2631 2963 
z
" transform="scale(0.015625)"/>
       <path id="DejaVuSans-69" d="M 603 3500 
L 1178 3500 
L 1178 0 
L 603 0 
L 603 3500 
z
M 603 4863 
L 1178 4863 
L 1178 4134 
L 603 4134 
L 603 4863 
z
" transform="scale(0.015625)"/>
       <path id="DejaVuSans-63" d="M 3122 3366 
L 3122 2828 
Q 2878 2963 2633 3030 
Q 2388 3097 2138 3097 
Q 1578 3097 1268 2742 
Q 959 2388 959 1747 
Q 959 1106 1268 751 
Q 1578 397 2138 397 
Q 2388 397 2633 464 
Q 2878 531 3122 666 
L 3122 134 
Q 2881 22 2623 -34 
Q 2366 -91 2075 -91 
Q 1284 -91 818 406 
Q 353 903 353 1747 
Q 353 2603 823 3093 
Q 1294 3584 2113 3584 
Q 2378 3584 2631 3529 
Q 2884 3475 3122 3366 
z
" transform="scale(0.015625)"/>
      </defs>
      <use xlink:href="#DejaVuSans-53"/>
      <use xlink:href="#DejaVuSans-61" transform="translate(63.476562 0)"/>
      <use xlink:href="#DejaVuSans-6c" transform="translate(124.755859 0)"/>
      <use xlink:href="#DejaVuSans-65" transform="translate(152.539062 0)"/>
      <use xlink:href="#DejaVuSans-50" transform="translate(214.0625 0)"/>
      <use xlink:href="#DejaVuSans-72" transform="translate(272.615234 0)"/>
      <use xlink:href="#DejaVuSans-69" transform="translate(313.728516 0)"/>
      <use xlink:href="#DejaVuSans-63" transform="translate(341.511719 0)"/>
      <use xlink:href="#DejaVuSans-65" transform="translate(396.492188 0)"/>
     </g>
    </g>
   </g>
   <g id="matplotlib.axis_2">
    <g id="ytick_1">
     <g id="line2d_9">
      <path d="M 72 512.64 
L 518.4 512.64 
" clip-path="url(#p66f11d81a1)" style="fill: none; stroke: #cccccc; stroke-linecap: round"/>
     </g>
     <g id="text_10">
      <!-- 0 -->
      <g style="fill: #262626" transform="translate(55.50125 516.819141) scale(0.11 -0.11)">
       <use xlink:href="#DejaVuSans-30"/>
      </g>
     </g>
    </g>
    <g id="ytick_2">
     <g id="line2d_10">
      <path d="M 72 452.978983 
L 518.4 452.978983 
" clip-path="url(#p66f11d81a1)" style="fill: none; stroke: #cccccc; stroke-linecap: round"/>
     </g>
     <g id="text_11">
      <!-- 25 -->
      <g style="fill: #262626" transform="translate(48.5025 457.158124) scale(0.11 -0.11)">
       <use xlink:href="#DejaVuSans-32"/>
       <use xlink:href="#DejaVuSans-35" transform="translate(63.623047 0)"/>
      </g>
     </g>
    </g>
    <g id="ytick_3">
     <g id="line2d_11">
      <path d="M 72 393.317966 
L 518.4 393.317966 
" clip-path="url(#p66f11d81a1)" style="fill: none; stroke: #cccccc; stroke-linecap: round"/>
     </g>
     <g id="text_12">
      <!-- 50 -->
      <g style="fill: #262626" transform="translate(48.5025 397.497107) scale(0.11 -0.11)">
       <use xlink:href="#DejaVuSans-35"/>
       <use xlink:href="#DejaVuSans-30" transform="translate(63.623047 0)"/>
      </g>
     </g>
    </g>
    <g id="ytick_4">
     <g id="line2d_12">
      <path d="M 72 333.656949 
L 518.4 333.656949 
" clip-path="url(#p66f11d81a1)" style="fill: none; stroke: #cccccc; stroke-linecap: round"/>
     </g>
     <g id="text_13">
      <!-- 75 -->
      <g style="fill: #262626" transform="translate(48.5025 337.83609) scale(0.11 -0.11)">
       <use xlink:href="#DejaVuSans-37"/>
       <use xlink:href="#DejaVuSans-35" transform="translate(63.623047 0)"/>
      </g>
     </g>
    </g>
    <g id="ytick_5">
     <g id="line2d_13">
      <path d="M 72 273.995932 
L 518.4 273.995932 
" clip-path="url(#p66f11d81a1)" style="fill: none; stroke: #cccccc; stroke-linecap: round"/>
     </g>
     <g id="text_14">
      <!-- 100 -->
      <g style="fill: #262626" transform="translate(41.50375 278.175073) scale(0.11 -0.11)">
       <use xlink:href="#DejaVuSans-31"/>
       <use xlink:href="#DejaVuSans-30" transform="translate(63.623047 0)"/>
       <use xlink:href="#DejaVuSans-30" transform="translate(127.246094 0)"/>
      </g>
     </g>
    </g>
    <g id="ytick_6">
     <g id="line2d_14">
      <path d="M 72 214.334915 
L 518.4 214.334915 
" clip-path="url(#p66f11d81a1)" style="fill: none; stroke: #cccccc; stroke-linecap: round"/>
     </g>
     <g id="text_15">
      <!-- 125 -->
      <g style="fill: #262626" transform="translate(41.50375 218.514056) scale(0.11 -0.11)">
       <use xlink:href="#DejaVuSans-31"/>
       <use xlink:href="#DejaVuSans-32" transform="translate(63.623047 0)"/>
       <use xlink:href="#DejaVuSans-35" transform="translate(127.246094 0)"/>
      </g>
     </g>
    </g>
    <g id="ytick_7">
     <g id="line2d_15">
      <path d="M 72 154.673898 
L 518.4 154.673898 
" clip-path="url(#p66f11d81a1)" style="fill: none; stroke: #cccccc; stroke-linecap: round"/>
     </g>
     <g id="text_16">
      <!-- 150 -->
      <g style="fill: #262626" transform="translate(41.50375 158.853039) scale(0.11 -0.11)">
       <use xlink:href="#DejaVuSans-31"/>
       <use xlink:href="#DejaVuSans-35" transform="translate(63.623047 0)"/>
       <use xlink:href="#DejaVuSans-30" transform="translate(127.246094 0)"/>
      </g>
     </g>
    </g>
    <g id="ytick_8">
     <g id="line2d_16">
      <path d="M 72 95.012881 
L 518.4 95.012881 
" clip-path="url(#p66f11d81a1)" style="fill: none; stroke: #cccccc; stroke-linecap: round"/>
     </g>
     <g id="text_17">
      <!-- 175 -->
      <g style="fill: #262626" transform="translate(41.50375 99.192022) scale(0.11 -0.11)">
       <use xlink:href="#DejaVuSans-31"/>
       <use xlink:href="#DejaVuSans-37" transform="translate(63.623047 0)"/>
       <use xlink:href="#DejaVuSans-35" transform="translate(127.246094 0)"/>
      </g>
     </g>
    </g>
    <g id="text_18">
     <!-- Frequency -->
     <g style="fill: #262626" transform="translate(35.008125 321.875625) rotate(-90) scale(0.12 -0.12)">
      <defs>
       <path id="DejaVuSans-46" d="M 628 4666 
L 3309 4666 
L 3309 4134 
L 1259 4134 
L 1259 2759 
L 3109 2759 
L 3109 2228 
L 1259 2228 
L 1259 0 
L 628 0 
L 628 4666 
z
" transform="scale(0.015625)"/>
       <path id="DejaVuSans-71" d="M 947 1747 
Q 947 1113 1208 752 
Q 1469 391 1925 391 
Q 2381 391 2643 752 
Q 2906 1113 2906 1747 
Q 2906 2381 2643 2742 
Q 2381 3103 1925 3103 
Q 1469 3103 1208 2742 
Q 947 2381 947 1747 
z
M 2906 525 
Q 2725 213 2448 61 
Q 2172 -91 1784 -91 
Q 1150 -91 751 415 
Q 353 922 353 1747 
Q 353 2572 751 3078 
Q 1150 3584 1784 3584 
Q 2172 3584 2448 3432 
Q 2725 3281 2906 2969 
L 2906 3500 
L 3481 3500 
L 3481 -1331 
L 2906 -1331 
L 2906 525 
z
" transform="scale(0.015625)"/>
       <path id="DejaVuSans-75" d="M 544 1381 
L 544 3500 
L 1119 3500 
L 1119 1403 
Q 1119 906 1312 657 
Q 1506 409 1894 409 
Q 2359 409 2629 706 
Q 2900 1003 2900 1516 
L 2900 3500 
L 3475 3500 
L 3475 0 
L 2900 0 
L 2900 538 
Q 2691 219 2414 64 
Q 2138 -91 1772 -91 
Q 1169 -91 856 284 
Q 544 659 544 1381 
z
M 1991 3584 
L 1991 3584 
z
" transform="scale(0.015625)"/>
       <path id="DejaVuSans-6e" d="M 3513 2113 
L 3513 0 
L 2938 0 
L 2938 2094 
Q 2938 2591 2744 2837 
Q 2550 3084 2163 3084 
Q 1697 3084 1428 2787 
Q 1159 2491 1159 1978 
L 1159 0 
L 581 0 
L 581 3500 
L 1159 3500 
L 1159 2956 
Q 1366 3272 1645 3428 
Q 1925 3584 2291 3584 
Q 2894 3584 3203 3211 
Q 3513 2838 3513 2113 
z
" transform="scale(0.015625)"/>
       <path id="DejaVuSans-79" d="M 2059 -325 
Q 1816 -950 1584 -1140 
Q 1353 -1331 966 -1331 
L 506 -1331 
L 506 -850 
L 844 -850 
Q 1081 -850 1212 -737 
Q 1344 -625 1503 -206 
L 1606 56 
L 191 3500 
L 800 3500 
L 1894 763 
L 2988 3500 
L 3597 3500 
L 2059 -325 
z
" transform="scale(0.015625)"/>
      </defs>
      <use xlink:href="#DejaVuSans-46"/>
      <use xlink:href="#DejaVuSans-72" transform="translate(50.269531 0)"/>
      <use xlink:href="#DejaVuSans-65" transform="translate(89.132812 0)"/>
      <use xlink:href="#DejaVuSans-71" transform="translate(150.65625 0)"/>
      <use xlink:href="#DejaVuSans-75" transform="translate(214.132812 0)"/>
      <use xlink:href="#DejaVuSans-65" transform="translate(277.511719 0)"/>
      <use xlink:href="#DejaVuSans-6e" transform="translate(339.035156 0)"/>
      <use xlink:href="#DejaVuSans-63" transform="translate(402.414062 0)"/>
      <use xlink:href="#DejaVuSans-79" transform="translate(457.394531 0)"/>
     </g>
    </g>
   </g>
   <g id="patch_3">
    <path d="M 92.290909 512.64 
L 100.572913 512.64 
L 100.572913 500.707797 
L 92.290909 500.707797 
z
" clip-path="url(#p66f11d81a1)" style="fill: #4c72b0; fill-opacity: 0.5; stroke: #ffffff; stroke-width: 0.8282; stroke-linejoin: miter"/>
   </g>
   <g id="patch_4">
    <path d="M 100.572913 512.64 
L 108.854917 512.64 
L 108.854917 486.389153 
L 100.572913 486.389153 
z
" clip-path="url(#p66f11d81a1)" style="fill: #4c72b0; fill-opacity: 0.5; stroke: #ffffff; stroke-width: 0.8282; stroke-linejoin: miter"/>
   </g>
   <g id="patch_5">
    <path d="M 108.854917 512.64 
L 117.13692 512.64 
L 117.13692 481.616271 
L 108.854917 481.616271 
z
" clip-path="url(#p66f11d81a1)" style="fill: #4c72b0; fill-opacity: 0.5; stroke: #ffffff; stroke-width: 0.8282; stroke-linejoin: miter"/>
   </g>
   <g id="patch_6">
    <path d="M 117.13692 512.64 
L 125.418924 512.64 
L 125.418924 352.748475 
L 117.13692 352.748475 
z
" clip-path="url(#p66f11d81a1)" style="fill: #4c72b0; fill-opacity: 0.5; stroke: #ffffff; stroke-width: 0.8282; stroke-linejoin: miter"/>
   </g>
   <g id="patch_7">
    <path d="M 125.418924 512.64 
L 133.700928 512.64 
L 133.700928 355.134915 
L 125.418924 355.134915 
z
" clip-path="url(#p66f11d81a1)" style="fill: #4c72b0; fill-opacity: 0.5; stroke: #ffffff; stroke-width: 0.8282; stroke-linejoin: miter"/>
   </g>
   <g id="patch_8">
    <path d="M 133.700928 512.64 
L 141.982931 512.64 
L 141.982931 214.334915 
L 133.700928 214.334915 
z
" clip-path="url(#p66f11d81a1)" style="fill: #4c72b0; fill-opacity: 0.5; stroke: #ffffff; stroke-width: 0.8282; stroke-linejoin: miter"/>
   </g>
   <g id="patch_9">
    <path d="M 141.982931 512.64 
L 150.264935 512.64 
L 150.264935 90.24 
L 141.982931 90.24 
z
" clip-path="url(#p66f11d81a1)" style="fill: #4c72b0; fill-opacity: 0.5; stroke: #ffffff; stroke-width: 0.8282; stroke-linejoin: miter"/>
   </g>
   <g id="patch_10">
    <path d="M 150.264935 512.64 
L 158.546939 512.64 
L 158.546939 104.558644 
L 150.264935 104.558644 
z
" clip-path="url(#p66f11d81a1)" style="fill: #4c72b0; fill-opacity: 0.5; stroke: #ffffff; stroke-width: 0.8282; stroke-linejoin: miter"/>
   </g>
   <g id="patch_11">
    <path d="M 158.546939 512.64 
L 166.828942 512.64 
L 166.828942 204.789153 
L 158.546939 204.789153 
z
" clip-path="url(#p66f11d81a1)" style="fill: #4c72b0; fill-opacity: 0.5; stroke: #ffffff; stroke-width: 0.8282; stroke-linejoin: miter"/>
   </g>
   <g id="patch_12">
    <path d="M 166.828942 512.64 
L 175.110946 512.64 
L 175.110946 166.606102 
L 166.828942 166.606102 
z
" clip-path="url(#p66f11d81a1)" style="fill: #4c72b0; fill-opacity: 0.5; stroke: #ffffff; stroke-width: 0.8282; stroke-linejoin: miter"/>
   </g>
   <g id="patch_13">
    <path d="M 175.110946 512.64 
L 183.39295 512.64 
L 183.39295 266.83661 
L 175.110946 266.83661 
z
" clip-path="url(#p66f11d81a1)" style="fill: #4c72b0; fill-opacity: 0.5; stroke: #ffffff; stroke-width: 0.8282; stroke-linejoin: miter"/>
   </g>
   <g id="patch_14">
    <path d="M 183.39295 512.64 
L 191.674954 512.64 
L 191.674954 345.589153 
L 183.39295 345.589153 
z
" clip-path="url(#p66f11d81a1)" style="fill: #4c72b0; fill-opacity: 0.5; stroke: #ffffff; stroke-width: 0.8282; stroke-linejoin: miter"/>
   </g>
   <g id="patch_15">
    <path d="M 191.674954 512.64 
L 199.956957 512.64 
L 199.956957 357.521356 
L 191.674954 357.521356 
z
" clip-path="url(#p66f11d81a1)" style="fill: #4c72b0; fill-opacity: 0.5; stroke: #ffffff; stroke-width: 0.8282; stroke-linejoin: miter"/>
   </g>
   <g id="patch_16">
    <path d="M 199.956957 512.64 
L 208.238961 512.64 
L 208.238961 350.362034 
L 199.956957 350.362034 
z
" clip-path="url(#p66f11d81a1)" style="fill: #4c72b0; fill-opacity: 0.5; stroke: #ffffff; stroke-width: 0.8282; stroke-linejoin: miter"/>
   </g>
   <g id="patch_17">
    <path d="M 208.238961 512.64 
L 216.520965 512.64 
L 216.520965 421.955254 
L 208.238961 421.955254 
z
" clip-path="url(#p66f11d81a1)" style="fill: #4c72b0; fill-opacity: 0.5; stroke: #ffffff; stroke-width: 0.8282; stroke-linejoin: miter"/>
   </g>
   <g id="patch_18">
    <path d="M 216.520965 512.64 
L 224.802968 512.64 
L 224.802968 417.182373 
L 216.520965 417.182373 
z
" clip-path="url(#p66f11d81a1)" style="fill: #4c72b0; fill-opacity: 0.5; stroke: #ffffff; stroke-width: 0.8282; stroke-linejoin: miter"/>
   </g>
   <g id="patch_19">
    <path d="M 224.802968 512.64 
L 233.084972 512.64 
L 233.084972 433.887458 
L 224.802968 433.887458 
z
" clip-path="url(#p66f11d81a1)" style="fill: #4c72b0; fill-opacity: 0.5; stroke: #ffffff; stroke-width: 0.8282; stroke-linejoin: miter"/>
   </g>
   <g id="patch_20">
    <path d="M 233.084972 512.64 
L 241.366976 512.64 
L 241.366976 469.684068 
L 233.084972 469.684068 
z
" clip-path="url(#p66f11d81a1)" style="fill: #4c72b0; fill-opacity: 0.5; stroke: #ffffff; stroke-width: 0.8282; stroke-linejoin: miter"/>
   </g>
   <g id="patch_21">
    <path d="M 241.366976 512.64 
L 249.64898 512.64 
L 249.64898 472.070508 
L 241.366976 472.070508 
z
" clip-path="url(#p66f11d81a1)" style="fill: #4c72b0; fill-opacity: 0.5; stroke: #ffffff; stroke-width: 0.8282; stroke-linejoin: miter"/>
   </g>
   <g id="patch_22">
    <path d="M 249.64898 512.64 
L 257.930983 512.64 
L 257.930983 448.206102 
L 249.64898 448.206102 
z
" clip-path="url(#p66f11d81a1)" style="fill: #4c72b0; fill-opacity: 0.5; stroke: #ffffff; stroke-width: 0.8282; stroke-linejoin: miter"/>
   </g>
   <g id="patch_23">
    <path d="M 257.930983 512.64 
L 266.212987 512.64 
L 266.212987 481.616271 
L 257.930983 481.616271 
z
" clip-path="url(#p66f11d81a1)" style="fill: #4c72b0; fill-opacity: 0.5; stroke: #ffffff; stroke-width: 0.8282; stroke-linejoin: miter"/>
   </g>
   <g id="patch_24">
    <path d="M 266.212987 512.64 
L 274.494991 512.64 
L 274.494991 498.321356 
L 266.212987 498.321356 
z
" clip-path="url(#p66f11d81a1)" style="fill: #4c72b0; fill-opacity: 0.5; stroke: #ffffff; stroke-width: 0.8282; stroke-linejoin: miter"/>
   </g>
   <g id="patch_25">
    <path d="M 274.494991 512.64 
L 282.776994 512.64 
L 282.776994 493.548475 
L 274.494991 493.548475 
z
" clip-path="url(#p66f11d81a1)" style="fill: #4c72b0; fill-opacity: 0.5; stroke: #ffffff; stroke-width: 0.8282; stroke-linejoin: miter"/>
   </g>
   <g id="patch_26">
    <path d="M 282.776994 512.64 
L 291.058998 512.64 
L 291.058998 486.389153 
L 282.776994 486.389153 
z
" clip-path="url(#p66f11d81a1)" style="fill: #4c72b0; fill-opacity: 0.5; stroke: #ffffff; stroke-width: 0.8282; stroke-linejoin: miter"/>
   </g>
   <g id="patch_27">
    <path d="M 291.058998 512.64 
L 299.341002 512.64 
L 299.341002 495.934915 
L 291.058998 495.934915 
z
" clip-path="url(#p66f11d81a1)" style="fill: #4c72b0; fill-opacity: 0.5; stroke: #ffffff; stroke-width: 0.8282; stroke-linejoin: miter"/>
   </g>
   <g id="patch_28">
    <path d="M 299.341002 512.64 
L 307.623006 512.64 
L 307.623006 500.707797 
L 299.341002 500.707797 
z
" clip-path="url(#p66f11d81a1)" style="fill: #4c72b0; fill-opacity: 0.5; stroke: #ffffff; stroke-width: 0.8282; stroke-linejoin: miter"/>
   </g>
   <g id="patch_29">
    <path d="M 307.623006 512.64 
L 315.905009 512.64 
L 315.905009 503.094237 
L 307.623006 503.094237 
z
" clip-path="url(#p66f11d81a1)" style="fill: #4c72b0; fill-opacity: 0.5; stroke: #ffffff; stroke-width: 0.8282; stroke-linejoin: miter"/>
   </g>
   <g id="patch_30">
    <path d="M 315.905009 512.64 
L 324.187013 512.64 
L 324.187013 503.094237 
L 315.905009 503.094237 
z
" clip-path="url(#p66f11d81a1)" style="fill: #4c72b0; fill-opacity: 0.5; stroke: #ffffff; stroke-width: 0.8282; stroke-linejoin: miter"/>
   </g>
   <g id="patch_31">
    <path d="M 324.187013 512.64 
L 332.469017 512.64 
L 332.469017 510.253559 
L 324.187013 510.253559 
z
" clip-path="url(#p66f11d81a1)" style="fill: #4c72b0; fill-opacity: 0.5; stroke: #ffffff; stroke-width: 0.8282; stroke-linejoin: miter"/>
   </g>
   <g id="patch_32">
    <path d="M 332.469017 512.64 
L 340.75102 512.64 
L 340.75102 505.480678 
L 332.469017 505.480678 
z
" clip-path="url(#p66f11d81a1)" style="fill: #4c72b0; fill-opacity: 0.5; stroke: #ffffff; stroke-width: 0.8282; stroke-linejoin: miter"/>
   </g>
   <g id="patch_33">
    <path d="M 340.75102 512.64 
L 349.033024 512.64 
L 349.033024 510.253559 
L 340.75102 510.253559 
z
" clip-path="url(#p66f11d81a1)" style="fill: #4c72b0; fill-opacity: 0.5; stroke: #ffffff; stroke-width: 0.8282; stroke-linejoin: miter"/>
   </g>
   <g id="patch_34">
    <path d="M 349.033024 512.64 
L 357.315028 512.64 
L 357.315028 510.253559 
L 349.033024 510.253559 
z
" clip-path="url(#p66f11d81a1)" style="fill: #4c72b0; fill-opacity: 0.5; stroke: #ffffff; stroke-width: 0.8282; stroke-linejoin: miter"/>
   </g>
   <g id="patch_35">
    <path d="M 357.315028 512.64 
L 365.597032 512.64 
L 365.597032 512.64 
L 357.315028 512.64 
z
" clip-path="url(#p66f11d81a1)" style="fill: #4c72b0; fill-opacity: 0.5; stroke: #ffffff; stroke-width: 0.8282; stroke-linejoin: miter"/>
   </g>
   <g id="patch_36">
    <path d="M 365.597032 512.64 
L 373.879035 512.64 
L 373.879035 512.64 
L 365.597032 512.64 
z
" clip-path="url(#p66f11d81a1)" style="fill: #4c72b0; fill-opacity: 0.5; stroke: #ffffff; stroke-width: 0.8282; stroke-linejoin: miter"/>
   </g>
   <g id="patch_37">
    <path d="M 373.879035 512.64 
L 382.161039 512.64 
L 382.161039 510.253559 
L 373.879035 510.253559 
z
" clip-path="url(#p66f11d81a1)" style="fill: #4c72b0; fill-opacity: 0.5; stroke: #ffffff; stroke-width: 0.8282; stroke-linejoin: miter"/>
   </g>
   <g id="patch_38">
    <path d="M 382.161039 512.64 
L 390.443043 512.64 
L 390.443043 507.867119 
L 382.161039 507.867119 
z
" clip-path="url(#p66f11d81a1)" style="fill: #4c72b0; fill-opacity: 0.5; stroke: #ffffff; stroke-width: 0.8282; stroke-linejoin: miter"/>
   </g>
   <g id="patch_39">
    <path d="M 390.443043 512.64 
L 398.725046 512.64 
L 398.725046 512.64 
L 390.443043 512.64 
z
" clip-path="url(#p66f11d81a1)" style="fill: #4c72b0; fill-opacity: 0.5; stroke: #ffffff; stroke-width: 0.8282; stroke-linejoin: miter"/>
   </g>
   <g id="patch_40">
    <path d="M 398.725046 512.64 
L 407.00705 512.64 
L 407.00705 510.253559 
L 398.725046 510.253559 
z
" clip-path="url(#p66f11d81a1)" style="fill: #4c72b0; fill-opacity: 0.5; stroke: #ffffff; stroke-width: 0.8282; stroke-linejoin: miter"/>
   </g>
   <g id="patch_41">
    <path d="M 407.00705 512.64 
L 415.289054 512.64 
L 415.289054 512.64 
L 407.00705 512.64 
z
" clip-path="url(#p66f11d81a1)" style="fill: #4c72b0; fill-opacity: 0.5; stroke: #ffffff; stroke-width: 0.8282; stroke-linejoin: miter"/>
   </g>
   <g id="patch_42">
    <path d="M 415.289054 512.64 
L 423.571058 512.64 
L 423.571058 510.253559 
L 415.289054 510.253559 
z
" clip-path="url(#p66f11d81a1)" style="fill: #4c72b0; fill-opacity: 0.5; stroke: #ffffff; stroke-width: 0.8282; stroke-linejoin: miter"/>
   </g>
   <g id="patch_43">
    <path d="M 423.571058 512.64 
L 431.853061 512.64 
L 431.853061 510.253559 
L 423.571058 510.253559 
z
" clip-path="url(#p66f11d81a1)" style="fill: #4c72b0; fill-opacity: 0.5; stroke: #ffffff; stroke-width: 0.8282; stroke-linejoin: miter"/>
   </g>
   <g id="patch_44">
    <path d="M 431.853061 512.64 
L 440.135065 512.64 
L 440.135065 512.64 
L 431.853061 512.64 
z
" clip-path="url(#p66f11d81a1)" style="fill: #4c72b0; fill-opacity: 0.5; stroke: #ffffff; stroke-width: 0.8282; stroke-linejoin: miter"/>
   </g>
   <g id="patch_45">
    <path d="M 440.135065 512.64 
L 448.417069 512.64 
L 448.417069 512.64 
L 440.135065 512.64 
z
" clip-path="url(#p66f11d81a1)" style="fill: #4c72b0; fill-opacity: 0.5; stroke: #ffffff; stroke-width: 0.8282; stroke-linejoin: miter"/>
   </g>
   <g id="patch_46">
    <path d="M 448.417069 512.64 
L 456.699072 512.64 
L 456.699072 512.64 
L 448.417069 512.64 
z
" clip-path="url(#p66f11d81a1)" style="fill: #4c72b0; fill-opacity: 0.5; stroke: #ffffff; stroke-width: 0.8282; stroke-linejoin: miter"/>
   </g>
   <g id="patch_47">
    <path d="M 456.699072 512.64 
L 464.981076 512.64 
L 464.981076 512.64 
L 456.699072 512.64 
z
" clip-path="url(#p66f11d81a1)" style="fill: #4c72b0; fill-opacity: 0.5; stroke: #ffffff; stroke-width: 0.8282; stroke-linejoin: miter"/>
   </g>
   <g id="patch_48">
    <path d="M 464.981076 512.64 
L 473.26308 512.64 
L 473.26308 512.64 
L 464.981076 512.64 
z
" clip-path="url(#p66f11d81a1)" style="fill: #4c72b0; fill-opacity: 0.5; stroke: #ffffff; stroke-width: 0.8282; stroke-linejoin: miter"/>
   </g>
   <g id="patch_49">
    <path d="M 473.26308 512.64 
L 481.545083 512.64 
L 481.545083 512.64 
L 473.26308 512.64 
z
" clip-path="url(#p66f11d81a1)" style="fill: #4c72b0; fill-opacity: 0.5; stroke: #ffffff; stroke-width: 0.8282; stroke-linejoin: miter"/>
   </g>
   <g id="patch_50">
    <path d="M 481.545083 512.64 
L 489.827087 512.64 
L 489.827087 512.64 
L 481.545083 512.64 
z
" clip-path="url(#p66f11d81a1)" style="fill: #4c72b0; fill-opacity: 0.5; stroke: #ffffff; stroke-width: 0.8282; stroke-linejoin: miter"/>
   </g>
   <g id="patch_51">
    <path d="M 489.827087 512.64 
L 498.109091 512.64 
L 498.109091 507.867119 
L 489.827087 507.867119 
z
" clip-path="url(#p66f11d81a1)" style="fill: #4c72b0; fill-opacity: 0.5; stroke: #ffffff; stroke-width: 0.8282; stroke-linejoin: miter"/>
   </g>
   <g id="line2d_17">
    <path d="M 92.290909 501.989624 
L 94.330196 499.438145 
L 96.369484 496.374499 
L 98.408771 492.691877 
L 100.448058 488.271 
L 102.487346 482.988534 
L 104.526633 476.728228 
L 106.565921 469.392823 
L 108.605208 460.914021 
L 110.644495 451.257652 
L 112.683783 440.421998 
L 114.72307 428.429003 
L 116.762357 415.310505 
L 118.801645 401.093831 
L 120.840932 385.792249 
L 122.880219 369.405256 
L 124.919507 351.931393 
L 128.998081 313.867748 
L 133.076656 272.639202 
L 137.155231 231.004885 
L 139.194518 211.397422 
L 141.233805 193.462023 
L 143.273093 177.839153 
L 145.31238 165.080542 
L 147.351667 155.583506 
L 149.390955 149.540358 
L 151.430242 146.913423 
L 153.469529 147.442639 
L 155.508817 150.686875 
L 157.548104 156.093108 
L 159.587392 163.081091 
L 161.626679 171.127161 
L 165.705254 188.948774 
L 169.783828 208.217775 
L 171.823116 218.514118 
L 173.862403 229.392777 
L 177.940978 252.987656 
L 186.098127 302.828813 
L 188.137414 314.231807 
L 190.176702 324.746377 
L 192.215989 334.289049 
L 194.255276 342.877625 
L 196.294564 350.614485 
L 198.333851 357.657647 
L 202.412426 370.369238 
L 206.491 382.176242 
L 210.569575 393.552797 
L 214.64815 404.3939 
L 218.726725 414.520222 
L 222.805299 424.029484 
L 228.923161 437.64329 
L 233.001736 446.125004 
L 235.041023 449.978258 
L 237.080311 453.455889 
L 239.119598 456.495561 
L 241.158885 459.077047 
L 243.198173 461.231505 
L 245.23746 463.040064 
L 253.394609 469.33398 
L 255.433897 471.231321 
L 257.473184 473.356544 
L 261.551759 478.120843 
L 265.630333 482.981202 
L 267.669621 485.188367 
L 269.708908 487.128309 
L 271.748196 488.743882 
L 273.787483 490.011092 
L 275.82677 490.940721 
L 277.866058 491.575689 
L 279.905345 491.98447 
L 288.062494 493.045046 
L 290.101782 493.518329 
L 292.141069 494.144472 
L 296.219644 495.80421 
L 306.41608 500.549747 
L 310.494655 502.027866 
L 314.57323 503.22385 
L 320.691092 504.750129 
L 328.848241 506.582203 
L 334.966103 507.742217 
L 345.16254 509.361096 
L 353.319689 510.48443 
L 359.437551 511.076923 
L 363.516126 511.262142 
L 367.594701 511.246045 
L 373.712563 510.915451 
L 381.869712 510.423226 
L 385.948287 510.375756 
L 392.066149 510.585429 
L 402.262586 511.080816 
L 408.380448 511.152677 
L 422.655459 511.143613 
L 428.773321 511.498686 
L 441.009045 512.354738 
L 449.166195 512.582899 
L 461.401919 512.627829 
L 471.598355 512.508234 
L 477.716217 512.25059 
L 485.873367 511.641206 
L 491.991229 511.247881 
L 496.069804 511.185473 
L 498.109091 511.230255 
L 498.109091 511.230255 
" clip-path="url(#p66f11d81a1)" style="fill: none; stroke: #4c72b0; stroke-width: 1.5; stroke-linecap: round"/>
   </g>
   <g id="patch_52">
    <path d="M 72 512.64 
L 72 69.12 
" style="fill: none; stroke: #cccccc; stroke-width: 1.25; stroke-linejoin: miter; stroke-linecap: square"/>
   </g>
   <g id="patch_53">
    <path d="M 518.4 512.64 
L 518.4 69.12 
" style="fill: none; stroke: #cccccc; stroke-width: 1.25; stroke-linejoin: miter; stroke-linecap: square"/>
   </g>
   <g id="patch_54">
    <path d="M 72 512.64 
L 518.4 512.64 
" style="fill: none; stroke: #cccccc; stroke-width: 1.25; stroke-linejoin: miter; stroke-linecap: square"/>
   </g>
   <g id="patch_55">
    <path d="M 72 69.12 
L 518.4 69.12 
" style="fill: none; stroke: #cccccc; stroke-width: 1.25; stroke-linejoin: miter; stroke-linecap: square"/>
   </g>
   <g id="text_19">
    <!-- Sale Price Skewness -->
    <g style="fill: #262626" transform="translate(214.25875 63.12) scale(0.16 -0.16)">
     <defs>
      <path id="DejaVuSans-20" transform="scale(0.015625)"/>
      <path id="DejaVuSans-6b" d="M 581 4863 
L 1159 4863 
L 1159 1991 
L 2875 3500 
L 3609 3500 
L 1753 1863 
L 3688 0 
L 2938 0 
L 1159 1709 
L 1159 0 
L 581 0 
L 581 4863 
z
" transform="scale(0.015625)"/>
      <path id="DejaVuSans-77" d="M 269 3500 
L 844 3500 
L 1563 769 
L 2278 3500 
L 2956 3500 
L 3675 769 
L 4391 3500 
L 4966 3500 
L 4050 0 
L 3372 0 
L 2619 2869 
L 1863 0 
L 1184 0 
L 269 3500 
z
" transform="scale(0.015625)"/>
      <path id="DejaVuSans-73" d="M 2834 3397 
L 2834 2853 
Q 2591 2978 2328 3040 
Q 2066 3103 1784 3103 
Q 1356 3103 1142 2972 
Q 928 2841 928 2578 
Q 928 2378 1081 2264 
Q 1234 2150 1697 2047 
L 1894 2003 
Q 2506 1872 2764 1633 
Q 3022 1394 3022 966 
Q 3022 478 2636 193 
Q 2250 -91 1575 -91 
Q 1294 -91 989 -36 
Q 684 19 347 128 
L 347 722 
Q 666 556 975 473 
Q 1284 391 1588 391 
Q 1994 391 2212 530 
Q 2431 669 2431 922 
Q 2431 1156 2273 1281 
Q 2116 1406 1581 1522 
L 1381 1569 
Q 847 1681 609 1914 
Q 372 2147 372 2553 
Q 372 3047 722 3315 
Q 1072 3584 1716 3584 
Q 2034 3584 2315 3537 
Q 2597 3491 2834 3397 
z
" transform="scale(0.015625)"/>
     </defs>
     <use xlink:href="#DejaVuSans-53"/>
     <use xlink:href="#DejaVuSans-61" transform="translate(63.476562 0)"/>
     <use xlink:href="#DejaVuSans-6c" transform="translate(124.755859 0)"/>
     <use xlink:href="#DejaVuSans-65" transform="translate(152.539062 0)"/>
     <use xlink:href="#DejaVuSans-20" transform="translate(214.0625 0)"/>
     <use xlink:href="#DejaVuSans-50" transform="translate(245.849609 0)"/>
     <use xlink:href="#DejaVuSans-72" transform="translate(304.402344 0)"/>
     <use xlink:href="#DejaVuSans-69" transform="translate(345.515625 0)"/>
     <use xlink:href="#DejaVuSans-63" transform="translate(373.298828 0)"/>
     <use xlink:href="#DejaVuSans-65" transform="translate(428.279297 0)"/>
     <use xlink:href="#DejaVuSans-20" transform="translate(489.802734 0)"/>
     <use xlink:href="#DejaVuSans-53" transform="translate(521.589844 0)"/>
     <use xlink:href="#DejaVuSans-6b" transform="translate(585.066406 0)"/>
     <use xlink:href="#DejaVuSans-65" transform="translate(639.351562 0)"/>
     <use xlink:href="#DejaVuSans-77" transform="translate(700.875 0)"/>
     <use xlink:href="#DejaVuSans-6e" transform="translate(782.662109 0)"/>
     <use xlink:href="#DejaVuSans-65" transform="translate(846.041016 0)"/>
     <use xlink:href="#DejaVuSans-73" transform="translate(907.564453 0)"/>
     <use xlink:href="#DejaVuSans-73" transform="translate(959.664062 0)"/>
    </g>
   </g>
  </g>
 </g>
 <defs>
  <clipPath id="p66f11d81a1">
   <rect x="72" y="69.12" width="446.4" height="443.52"/>
  </clipPath>
 </defs>
</svg>
